<svg xmlns="http://www.w3.org/2000/svg" class="looka-1j8o68f" viewBox="9 -8 361.33 55.32"><defs id="SvgjsDefs1051"/><g id="SvgjsG1052" featurekey="5TMTKC-0" transform="matrix(0.7297032131469218,0,0,0.7297032131469218,5.263919632195666,-21.587070265791713)" fill="#fb0516"><title xmlns="http://www.w3.org/2000/svg">video-stream</title><g xmlns="http://www.w3.org/2000/svg" data-name="Livello 26"><path d="M95.12,50.12v4.5a27,27,0,0,0-27,27h-4.5A31.55,31.55,0,0,1,95.12,50.12Zm-18,31.5h4.5a13.52,13.52,0,0,1,13.5-13.5v-4.5A18,18,0,0,0,77.12,81.62Zm-36-44.37L63.66,50.12,41.12,63Zm4.5,18,9-5.13-9-5.12Zm45,26.37h4.5v-4.5h-4.5Zm-6.74-63H16.38A11.27,11.27,0,0,0,5.12,29.87v40.5A11.26,11.26,0,0,0,16.38,81.62H54.62v-4.5H16.38a6.76,6.76,0,0,1-6.76-6.75V29.87a6.76,6.76,0,0,1,6.76-6.75h67.5a6.75,6.75,0,0,1,6.74,6.75V41.12h4.5V29.87A11.26,11.26,0,0,0,83.88,18.62Z"/></g></g><g id="SvgjsG1053" featurekey="7UBp9i-0" transform="matrix(2.123743149482269,0,0,2.123743149482269,84.30100583485206,-8.707335570865244)" fill="#fcfbfb"><path d="M7.44 20.3 c-1.94 0 -3.52 -0.42 -4.76 -1.28 s-1.86 -2.02 -1.86 -3.52 l0 -0.18 l-0.02 -0.8 l3.92 0 l0 0.9 c0 0.34 0.24 0.66 0.7 0.96 s1.1 0.46 1.94 0.46 c0.7 0 1.2 -0.1 1.52 -0.28 c0.3 -0.18 0.46 -0.42 0.46 -0.68 c0 -0.32 -0.2 -0.6 -0.58 -0.84 c-0.4 -0.24 -1.1 -0.52 -2.08 -0.86 c-0.62 -0.22 -1.14 -0.4 -1.56 -0.56 s-0.92 -0.4 -1.5 -0.72 c-0.58 -0.3 -1.06 -0.64 -1.4 -0.98 s-0.64 -0.76 -0.9 -1.28 s-0.38 -1.08 -0.38 -1.7 c0 -1.46 0.56 -2.64 1.7 -3.52 s2.6 -1.32 4.4 -1.32 c1.86 0 3.38 0.46 4.58 1.38 s1.8 2.14 1.8 3.66 l0 0.98 l-3.9 0 l0 -0.9 c0 -0.42 -0.2 -0.82 -0.62 -1.16 s-1.02 -0.5 -1.78 -0.5 c-0.62 0 -1.1 0.1 -1.42 0.3 c-0.32 0.22 -0.48 0.46 -0.48 0.76 s0.18 0.54 0.54 0.74 c0.36 0.22 1.04 0.5 2.04 0.84 l1.02 0.36 l1.08 0.44 c0.46 0.22 0.84 0.4 1.12 0.58 s0.6 0.42 0.98 0.72 s0.66 0.62 0.88 0.92 c0.2 0.3 0.38 0.68 0.54 1.1 c0.14 0.42 0.22 0.88 0.22 1.34 c0 1.48 -0.58 2.62 -1.72 3.42 c-1.14 0.82 -2.64 1.22 -4.48 1.22 z M18.419999999999998 11.16 l0 8.84 l3.24 0 l0 -3.52 c0 -1.28 -0.04 -2.58 -0.04 -3.86 l0 -1.46 l3.2 -0.04 l0 -2.74 l-3.2 0.02 l0 -4.04 l-3.18 0 l0 4.06 l-3.2 0 l0 2.74 l3.18 0 z M26.419999999999998 8.42 l0 11.58 l3.18 0 l0.04 -6.04 c0.02 -1.48 1.22 -2.72 2.8 -2.72 l0.84 0 l0.02 -3.04 l-0.86 0 c-0.98 0 -1.94 0.2 -2.8 0.64 l0 -0.42 l-3.22 0 z M33.85999999999999 14.18 c0 -3.08 2.62 -5.76 5.98 -5.76 c3.34 0 5.96 2.68 5.96 5.76 c0 0.42 -0.04 0.82 -0.12 1.2 l-8.34 0.02 c0.44 0.9 1.36 1.54 2.5 1.54 c0.78 0 1.48 -0.32 1.96 -0.8 l3.64 0 c-0.82 2.18 -3 3.82 -5.6 3.82 c-3.36 0 -5.98 -2.6 -5.98 -5.7 l0 -0.08 z M37.44 12.8 l-0.1 0.28 l5.06 0 l-0.16 -0.28 c-0.48 -0.8 -1.34 -1.36 -2.4 -1.36 s-1.94 0.56 -2.4 1.36 z M47.39999999999999 14.16 c0 3.14 2.66 5.84 6.04 5.84 c1.02 0 1.98 -0.22 2.86 -0.66 l0 0.66 l3.18 0 l-0.02 -11.56 l-3.24 0 l0 0.52 c-0.86 -0.42 -1.8 -0.62 -2.78 -0.62 c-3.38 0 -6.04 2.7 -6.04 5.82 z M55.44 16.14 c-0.54 0.52 -1.2 0.82 -2 0.82 c-1.58 0 -2.8 -1.32 -2.8 -2.8 c0 -1.46 1.22 -2.78 2.8 -2.78 c0.8 0 1.46 0.28 2 0.8 c0.34 0.34 0.78 1.06 0.78 1.48 l0 1.02 c0 0.42 -0.44 1.1 -0.78 1.46 z M73.11999999999999 8.34 c3.76 0 4.78 2.44 4.78 5.46 l0 6.2 l-3.24 0 l-0.02 -6.32 c0 -1.16 -0.66 -2.3 -1.76 -2.3 c-0.94 0 -1.76 0.48 -1.76 2.7 l0 5.92 l-2.86 0 l0 -6.3 c0 -1 -0.9 -2.32 -1.96 -2.32 c-1.26 0 -2 1.56 -2 2.7 l0 5.92 l-3.22 0 l0 -0.18 l0.02 -11.42 l3.18 0 l0 0.54 c0.6 -0.38 1.26 -0.6 2.02 -0.6 c1.4 0 2.74 0.72 3.36 1.9 c0.62 -1.22 2.08 -1.9 3.46 -1.9 z M79.49999999999999 20.56 c0 3.12 2.66 5.82 6.04 5.82 c3.46 0 6.06 -2.64 6.06 -5.82 l0 -12.16 l-3.24 0 l0 5.82 c0 1.46 -1.26 2.72 -2.82 2.72 c-1.54 0 -2.5 -1.12 -2.78 -2.52 l-0.02 -6.02 l-3.24 0 l0 5.94 c0 3.04 2.84 5.64 6.04 5.64 c1.02 0 1.98 -0.22 2.84 -0.66 l-0.02 1.24 c-0.04 1.54 -1.14 2.78 -2.82 2.78 c-1.58 0 -2.8 -1.32 -2.8 -2.78 l0 -0.18 l-3.24 0 l0 0.18 z M93.19999999999999 20 l0 -15.6 l3.98 0 l0 6.06 l6.36 0 l0 -6.06 l4 0 l0 15.6 l-4 0 l0 -5.8 l-6.36 0 l0 5.8 l-3.98 0 z M110.69999999999999 18.36 c1.14 1.22 2.68 1.64 4.36 1.64 c0.9 0 1.84 -0.14 2.68 -0.5 l0 0.5 l3.24 0 l0 -11.6 l-3.56 0 l0 5.6 c0 1.56 -0.66 2.58 -2.36 2.58 c-1.72 0 -2.34 -1.04 -2.34 -2.58 l0 -5.6 l-3.58 0 l0 5.78 c0 1.54 0.44 3 1.56 4.18 z M122.59999999999998 20 l3.24 0 l0 -0.64 c0.86 0.42 1.8 0.62 2.78 0.62 c3.4 0 6.06 -2.7 6.06 -5.84 c0 -3.12 -2.66 -5.82 -6.06 -5.82 c-1 0 -1.96 0.22 -2.84 0.66 l0 -4.6 l-3.18 0 l0 0.2 c0 3.18 -0.02 6.38 -0.02 9.56 c0 1.9 0.02 3.78 0.02 5.68 l0 0.18 z M131.44 14.14 c0 1.48 -1.22 2.8 -2.82 2.8 c-0.78 0 -1.44 -0.28 -1.98 -0.8 c-0.4 -0.4 -0.8 -1.12 -0.8 -1.64 l0 -0.7 c0 -0.52 0.4 -1.22 0.8 -1.62 c0.54 -0.52 1.2 -0.82 1.98 -0.82 c1.6 0 2.82 1.32 2.82 2.78 z"/></g></svg>