<svg xmlns="http://www.w3.org/2000/svg" viewBox="0 0 841.9 595.3">
<g id="SvgjsG1012" featurekey="xG21Y3-0" transform="matrix(0.9259259259259258,0,0,0.9259259259259258,15.259259365223073,2.7592637803819464)" fill="#ea2088"><title xmlns="http://www.w3.org/2000/svg">video-stream</title><g xmlns="http://www.w3.org/2000/svg" data-name="Livello 26"><path d="M95.12,50.12v4.5a27,27,0,0,0-27,27h-4.5A31.55,31.55,0,0,1,95.12,50.12Zm-18,31.5h4.5a13.52,13.52,0,0,1,13.5-13.5v-4.5A18,18,0,0,0,77.12,81.62Zm-36-44.37L63.66,50.12,41.12,63Zm4.5,18,9-5.13-9-5.12Zm45,26.37h4.5v-4.5h-4.5Zm-6.74-63H16.38A11.27,11.27,0,0,0,5.12,29.87v40.5A11.26,11.26,0,0,0,16.38,81.62H54.62v-4.5H16.38a6.76,6.76,0,0,1-6.76-6.75V29.87a6.76,6.76,0,0,1,6.76-6.75h67.5a6.75,6.75,0,0,1,6.74,6.75V41.12h4.5V29.87A11.26,11.26,0,0,0,83.88,18.62Z"></path></g></g>
</svg>